# xmcd
# 
# Track frame offsets:
#   150
#   8661
#   27548
#   63332
#   76980
#   98767
# 
# Disc length: 1549 seconds
# 
# Revision: 1
# Processed by: cddbd v1.5.1PL0 Copyright (c) Steve Scherf et al.
# Submitted via: VOLTOCDX V1.0.24 
# 
DISCID=3d060b06
DTITLE=My Artist - My Title
DYEAR=2005
DGENRE=Description of the extended genre
TTITLE0=Everyday
TTITLE1=The Distance
TTITLE2=Undivided
TTITLE3=
TTITLE4=
TTITLE5=
EXTD=Extended CD description
EXTT0=
EXTT1=
EXTT2=
EXTT3=
EXTT4=
EXTT5=
PLAYORDER=
